<?xml version="1.0" encoding="UTF-8"?>
<svg id="Layer_2" data-name="Layer 2" xmlns="http://www.w3.org/2000/svg" xmlns:xlink="http://www.w3.org/1999/xlink" viewBox="0 0 129.6 18">
  <defs>
    <style>
      .cls-1 {
        fill: none;
      }

      .cls-2 {
        mask: url(#mask);
      }

      .cls-3 {
        fill: #fff;
      }

      .cls-4 {
        fill: aqua;
      }

      .cls-5 {
        clip-path: url(#clippath);
      }

      .cls-6 {
        fill: #eff1f6;
      }
    </style>
    <clipPath id="clippath">
      <rect class="cls-1" width="129.6" height="18"/>
    </clipPath>
    <mask id="mask" x="0" y="0" width="129.6" height="18" maskUnits="userSpaceOnUse">
      <g id="mask0_435_1262" data-name="mask0 435 1262">
        <path class="cls-3" d="M129.6,0H0v18h129.6V0Z"/>
      </g>
    </mask>
  </defs>
  <g id="Layer_1-2" data-name="Layer 1">
    <g class="cls-5">
      <g class="cls-2">
        <g>
          <path id="_1" data-name="1" class="cls-4" d="M3.6,3.6H0V0h3.6v3.6Z"/>
          <path id="_2" data-name="2" class="cls-4" d="M14.4,3.6h-3.6V0h3.6v3.6Z"/>
          <path id="_3" data-name="3" class="cls-4" d="M7.2,7.2h-3.6v-3.6h3.6v3.6Z"/>
          <path id="_4" data-name="4" class="cls-4" d="M18,7.2h-3.6v-3.6h3.6v3.6Z"/>
          <path id="_5" data-name="5" class="cls-4" d="M10.8,10.8h-3.6v-3.6h3.6v3.6Z"/>
          <path id="_6" data-name="6" class="cls-4" d="M21.6,10.8h-3.6v-3.6s3.6,0,3.6,0v3.6Z"/>
          <path id="_7" data-name="7" class="cls-4" d="M7.2,14.4h-3.6v-3.6h3.6v3.6Z"/>
          <path id="_8" data-name="8" class="cls-4" d="M18,14.4h-3.6v-3.6h3.6v3.6Z"/>
          <path id="_9" data-name="9" class="cls-4" d="M3.6,18H0v-3.6h3.6v3.6Z"/>
          <path id="_10" data-name="10" class="cls-4" d="M14.4,18h-3.6v-3.6h3.6v3.6Z"/>
          <path class="cls-6" d="M38.07,5.45c-.87-.55-1.92-.82-3.15-.82-.97,0-1.81.18-2.51.55-.7.37-1.24.89-1.63,1.58h-.08V0h-3.19v14.55h-1.58v3.45h3.28v-2.32h.9c.44.74,1.04,1.31,1.8,1.72.76.4,1.67.6,2.74.6,1.33,0,2.45-.28,3.35-.82.91-.55,1.6-1.33,2.07-2.33.47-1.01.71-2.18.71-3.53s-.23-2.54-.7-3.53c-.46-1-1.13-1.78-2-2.32h0ZM36.69,14.2c-.59.69-1.47,1.04-2.63,1.04-1.01,0-1.83-.29-2.44-.87-.61-.58-.92-1.37-.92-2.37v-1.37c0-1,.31-1.79.92-2.37.61-.58,1.43-.87,2.44-.87,1.16,0,2.03.35,2.63,1.04.59.7.89,1.66.89,2.88s-.29,2.19-.89,2.88v.02ZM42.75,0h3.19v18h-3.19V0ZM60.83,4.91h-3.19v7.16c0,.98-.29,1.75-.86,2.29s-1.39.82-2.47.82c-1.01,0-1.78-.25-2.29-.76-.52-.51-.77-1.26-.77-2.26v-7.24h-3.19v7.88c0,1.6.47,2.87,1.42,3.8.95.94,2.3,1.4,4.06,1.4,1.14,0,2.09-.2,2.84-.59.75-.39,1.37-.96,1.88-1.7h.9v2.29h3.28v-3.43h-1.61V4.91h0ZM72.85,5.39c-.94-.5-2.07-.76-3.38-.76s-2.51.27-3.52.8c-1,.53-1.77,1.3-2.32,2.29-.55.99-.82,2.18-.82,3.55s.28,2.56.82,3.57c.55,1.01,1.33,1.79,2.35,2.33,1.01.55,2.21.82,3.6.82,1.64,0,3-.38,4.08-1.15,1.08-.76,1.77-1.82,2.07-3.18h-3.22c-.2.59-.55,1.03-1.04,1.32-.49.29-1.13.44-1.92.44-1.06,0-1.9-.29-2.54-.87-.64-.58-1.01-1.41-1.13-2.5h9.9v-1.12c0-1.3-.26-2.42-.77-3.37-.52-.95-1.24-1.68-2.18-2.18h.01ZM65.97,9.9c.2-.87.6-1.54,1.2-2.02.6-.47,1.36-.71,2.29-.71s1.69.23,2.25.7c.56.46.9,1.14,1.03,2.03h-6.77,0ZM85.46,10.16l-2.89-.56c-.53-.1-.91-.25-1.16-.45-.24-.2-.37-.46-.37-.79,0-.44.19-.78.58-1.01.38-.23.94-.34,1.67-.34.82,0,1.44.14,1.88.44.44.29.73.76.89,1.4h3.08c-.11-1.34-.67-2.38-1.66-3.12-1-.74-2.33-1.1-4.02-1.1s-3.01.36-3.97,1.08c-.96.72-1.43,1.69-1.43,2.9,0,1.88,1.26,3.07,3.77,3.56l2.83.53c.59.11,1,.28,1.25.49s.37.52.37.9c0,.96-.82,1.43-2.47,1.43-.97,0-1.72-.16-2.23-.48-.52-.32-.82-.82-.92-1.49h-3.11c.08,1.4.67,2.49,1.73,3.27,1.07.78,2.54,1.17,4.39,1.17s3.18-.37,4.13-1.09c.96-.73,1.43-1.74,1.43-3.04,0-1.01-.31-1.82-.92-2.42-.61-.6-1.58-1.03-2.89-1.28h.02ZM98.58,4.91c-.97,0-1.81.18-2.53.55-.71.37-1.28.89-1.69,1.6h-.08V0h-3.19v18h3.19v-7.16c0-1.01.27-1.79.82-2.32.54-.53,1.34-.79,2.38-.79s1.84.26,2.38.79c.54.53.82,1.3.82,2.32v7.16h3.19v-7.76c0-1.61-.47-2.9-1.42-3.88-.95-.97-2.23-1.46-3.85-1.46h0ZM107.28.13c-.5,0-.92.17-1.27.53-.35.35-.53.77-.53,1.28s.17.92.53,1.28c.35.35.77.52,1.27.52s.92-.17,1.27-.52c.35-.35.53-.77.53-1.28s-.17-.92-.53-1.28c-.35-.35-.77-.53-1.27-.53ZM105.7,5.14h3.19v12.86h-3.19V5.14ZM113.66.64c-.48.43-.72,1.09-.72,1.99v2.51h-2.42v2.48h2.4v10.37h3.19V7.63h2.93v-2.48h-2.98v-2.66h3.23V0h-3.64c-.86,0-1.52.22-2,.64h0ZM126.24,15.5v-7.85h3.06v-2.48h-3.1V1.3h-3.13v3.85h-2.29v2.48h2.27v7.77c0,.87.23,1.52.7,1.95.46.43,1.12.64,1.96.64h3.89v-2.5h-3.36,0Z"/>
        </g>
      </g>
    </g>
  </g>
</svg>